HIERARCHY
ROOT Hips
{
	OFFSET 0.000000 0.000000 0.000000
	CHANNELS 6 Xposition Yposition Zposition Zrotation Yrotation Xrotation 
	JOINT LHipJoint
	{
		OFFSET 0.000000 0.000000 0.000000
		CHANNELS 3 Zrotation Yrotation Xrotation
		JOINT LeftUpLeg
		{
			OFFSET 1.363060 -1.794630 0.839290
			CHANNELS 3 Zrotation Yrotation Xrotation
			JOINT LeftLeg
			{
				OFFSET 2.448110 -6.726130 0.000000
				CHANNELS 3 Zrotation Yrotation Xrotation
				JOINT LeftFoot
				{
					OFFSET 2.562200 -7.039590 0.000000
					CHANNELS 3 Zrotation Yrotation Xrotation
					JOINT LeftToeBase
					{
						OFFSET 0.157640 -0.433110 2.322550
						CHANNELS 3 Zrotation Yrotation Xrotation
						End Site
						{
							OFFSET 0.000000 0.000000 0.000000
						}
					}
				}
			}
		}
	}
	JOINT RHipJoint
	{
		OFFSET 0.000000 0.000000 0.000000
		CHANNELS 3 Zrotation Yrotation Xrotation
		JOINT RightUpLeg
		{
			OFFSET -1.305520 -1.794630 0.839290
			CHANNELS 3 Zrotation Yrotation Xrotation
			JOINT RightLeg
			{
				OFFSET -2.542530 -6.985550 0.000000
				CHANNELS 3 Zrotation Yrotation Xrotation
				JOINT RightFoot
				{
					OFFSET -2.568260 -7.056230 0.000000
					CHANNELS 3 Zrotation Yrotation Xrotation
					JOINT RightToeBase
					{
						OFFSET -0.164730 -0.452590 2.363150
						CHANNELS 3 Zrotation Yrotation Xrotation
						End Site
						{
							OFFSET 0.000000 0.000000 0.000000
						}
					}
				}
			}
		}
	}
	JOINT LowerBack
	{
		OFFSET 0.000000 0.000000 0.000000
		CHANNELS 3 Zrotation Yrotation Xrotation
		JOINT Spine
		{
			OFFSET 0.028270 2.035590 -0.193380
			CHANNELS 3 Zrotation Yrotation Xrotation
			JOINT Spine1
			{
				OFFSET 0.056720 2.048850 -0.042750
				CHANNELS 3 Zrotation Yrotation Xrotation
				JOINT Neck
				{
					OFFSET 0.000000 0.000000 0.000000
					CHANNELS 3 Zrotation Yrotation Xrotation
					JOINT Neck1
					{
						OFFSET -0.054170 1.746240 0.172020
						CHANNELS 3 Zrotation Yrotation Xrotation
						JOINT Head
						{
							OFFSET 0.104070 1.761360 -0.123970
							CHANNELS 3 Zrotation Yrotation Xrotation
							End Site
							{
								OFFSET 0.000000 0.000000 0.000000
							}
						}
					}
				}
				JOINT LeftShoulder
				{
					OFFSET 0.000000 0.000000 0.000000
					CHANNELS 3 Zrotation Yrotation Xrotation
					JOINT LeftArm
					{
						OFFSET 3.362410 1.200890 -0.311210
						CHANNELS 3 Zrotation Yrotation Xrotation
						JOINT LeftForeArm
						{
							OFFSET 4.983000 -0.000000 -0.000000
							CHANNELS 3 Zrotation Yrotation Xrotation
							JOINT LeftHand
							{
								OFFSET 3.483560 -0.000000 -0.000000
								CHANNELS 3 Zrotation Yrotation Xrotation
								JOINT LeftFingerBase
								{
									OFFSET 0.000000 0.000000 0.000000
									CHANNELS 3 Zrotation Yrotation Xrotation
									JOINT LeftHandIndex1
									{
										OFFSET 0.715260 -0.000000 -0.000000
										CHANNELS 3 Zrotation Yrotation Xrotation
										End Site
										{
											OFFSET 0.000000 0.000000 0.000000
										}
									}
								}
								JOINT LThumb
								{
									OFFSET 0.000000 0.000000 0.000000
									CHANNELS 3 Zrotation Yrotation Xrotation
									End Site
									{
										OFFSET 0.000000 0.000000 0.000000
									}
								}
							}
						}
					}
				}
				JOINT RightShoulder
				{
					OFFSET 0.000000 0.000000 0.000000
					CHANNELS 3 Zrotation Yrotation Xrotation
					JOINT RightArm
					{
						OFFSET -3.136600 1.374050 -0.404650
						CHANNELS 3 Zrotation Yrotation Xrotation
						JOINT RightForeArm
						{
							OFFSET -5.241900 -0.000000 -0.000000
							CHANNELS 3 Zrotation Yrotation Xrotation
							JOINT RightHand
							{
								OFFSET -3.444170 -0.000000 -0.000000
								CHANNELS 3 Zrotation Yrotation Xrotation
								JOINT RightFingerBase
								{
									OFFSET 0.000000 0.000000 0.000000
									CHANNELS 3 Zrotation Yrotation Xrotation
									JOINT RightHandIndex1
									{
										OFFSET -0.622530 -0.000000 -0.000000
										CHANNELS 3 Zrotation Yrotation Xrotation
										End Site
										{
											OFFSET 0.000000 0.000000 0.000000
										}
									}
								}
								JOINT RThumb
								{
									OFFSET 0.000000 0.000000 0.000000
									CHANNELS 3 Zrotation Yrotation Xrotation
									End Site
									{
										OFFSET 0.000000 0.000000 0.000000
									}
								}
							}
						}
					}
				}
			}
		}
	}
}
MOTION
Frames: 10
Frame Time: 0.008333
15.442891 18.038250 21.093065 176.683508 5.149888 -173.719389 -2.983171 2.422378 2.608176 -22.896552 -13.774405 -18.981733 2.789487 7.491310 25.421856 0.151311 -2.845848 -2.151453 0.020000 0.913100 2.509700 -1.272464 -2.807150 2.090856 18.047785 13.406007 -13.083375 -12.380451 -16.515150 64.559953 -1.452214 3.517696 21.410125 -0.193500 2.833000 -7.814100 -1.373678 2.012371 -2.945929 -2.080602 2.508625 6.367202 -2.362235 1.191140 -2.810349 -4.082482 -1.320814 -16.486888 -1.750291 -1.097477 10.233533 -0.209700 -0.972500 6.451100 -3.732401 -1.745977 -0.307155 -90.298083 4.647756 18.277331 16.271336 -17.254790 -2.328639 -0.514361 -0.943754 -1.413404 24.954760 15.403619 7.650300 -7.125000 0.000000 0.000000 -2.214300 47.982800 -0.163000 1.643949 1.141477 -0.043231 89.824504 -3.955048 6.997040 -15.549300 21.625230 -2.619860 0.116281 -0.220741 10.439083 -7.816220 25.084944 -3.420800 7.125000 0.000000 0.000000 13.138300 -5.048900 12.265100 
15.445470 18.033091 20.971155 176.374829 4.760459 -173.752252 -2.998314 2.421670 2.598955 -23.346025 -13.636560 -18.416182 2.773248 7.462801 25.300691 0.186821 -3.289159 -2.150726 0.021900 0.956500 2.629000 -1.241060 -2.855755 2.176253 17.458152 13.250603 -14.713713 -12.829129 -16.717808 66.073510 -1.102445 4.974862 19.331890 -0.235400 3.122500 -8.620100 -1.609403 1.789871 -2.763656 -2.176760 2.206345 6.208674 -2.214121 1.051839 -2.949033 -3.986801 -1.273513 -16.238498 -1.941121 -1.065281 10.276189 -0.264000 -0.972200 6.420100 -3.701713 -1.743185 -0.296114 -90.125113 4.651231 18.789629 16.542347 -17.693637 -2.434504 -0.553777 -1.034675 -1.601238 26.076422 17.773043 9.198400 -7.125000 0.000000 0.000000 -1.545200 50.841600 -0.222500 1.652706 1.142757 -0.035551 89.901654 -4.162764 6.670519 -15.537662 21.614425 -2.614557 0.116319 -0.221727 10.672384 -8.045104 25.241931 -3.540900 7.125000 0.000000 0.000000 13.003300 -4.871800 12.176500 
15.436967 18.027550 20.832812 176.047882 4.898764 -173.914200 -3.042873 2.422748 2.613750 -23.871179 -13.327792 -17.549576 2.703518 7.359289 24.901436 0.204628 -3.372247 -2.400196 0.022100 0.959700 2.637900 -1.228837 -2.902754 2.271101 16.774158 13.512502 -16.178318 -13.266815 -16.900903 67.573254 -0.825746 5.835198 17.276707 -0.173800 2.685300 -7.403900 -1.721654 1.924564 -2.774092 -2.528136 2.407199 6.546765 -2.163510 1.152819 -2.894601 -3.705981 -1.365627 -16.713091 -1.997641 -1.201735 10.526376 -0.330800 -1.029700 6.557500 -3.642809 -1.762822 -0.295891 -89.725694 4.192263 20.131725 16.714508 -17.984555 -2.507066 -0.559452 -1.262306 -2.405083 25.909933 23.376567 11.747900 -7.125000 0.000000 0.000000 -3.279500 57.071000 -0.970600 1.649829 1.170434 -0.044760 90.232521 -4.097834 5.992844 -15.647837 21.822561 -2.663183 0.114634 -0.220380 10.589954 -7.863282 24.994931 -3.429200 7.125000 0.000000 0.000000 13.108900 -5.132600 12.214800 
15.428560 18.032040 20.689597 175.879072 5.081033 -174.061477 -3.056548 2.413696 2.605306 -24.255086 -12.899579 -16.780651 2.657525 7.310182 24.663180 0.231254 -3.509817 -2.743848 0.031300 1.141300 3.137600 -1.202846 -2.948083 2.347442 16.263619 13.915395 -17.589592 -13.683434 -17.065225 69.025720 -0.655996 5.856053 15.370851 -0.065800 1.655500 -4.554400 -1.745674 1.913433 -2.744084 -2.521673 2.375186 6.326841 -2.147468 1.146641 -2.948331 -3.866500 -1.207090 -15.789957 -1.973289 -1.042668 10.165889 -0.278500 -0.960800 6.326000 -3.621594 -1.764540 -0.291431 -89.733726 4.437003 20.427818 16.914975 -18.271560 -2.609545 -0.539441 -1.068680 -2.537219 26.704569 18.339902 9.730100 -7.125000 0.000000 0.000000 -1.030300 51.602700 -0.167600 1.654442 1.162007 -0.045009 90.170082 -4.694454 6.265357 -15.793853 22.007986 -2.723559 0.110272 -0.212144 9.997365 -7.536501 24.017436 -3.164700 7.125000 0.000000 0.000000 13.296100 -6.124900 12.141000 
15.425311 18.036149 20.556318 175.699130 4.901094 -174.090656 -3.072534 2.411981 2.588332 -24.603655 -12.670852 -16.180061 2.622361 7.266459 24.464380 0.249629 -3.657532 -2.870165 0.019600 0.904800 2.486900 -1.173578 -2.993519 2.420314 15.751860 14.056843 -19.104403 -14.059852 -17.205534 70.335726 -0.496152 5.765068 13.249166 -0.020000 0.912500 -2.508000 -1.789368 1.814246 -2.512162 -2.625636 2.229048 6.050528 -2.113264 1.083562 -3.146643 -3.657144 -1.183728 -15.585916 -2.205241 -1.054970 10.280602 -0.366400 -0.979100 6.316400 -3.595257 -1.747645 -0.271089 -89.571537 4.525848 20.540391 17.107000 -18.552187 -2.697296 -0.457235 -1.011981 -2.131213 25.258306 16.712223 8.363500 -7.125000 0.000000 0.000000 -2.224900 49.521600 -0.248200 1.663306 1.157917 -0.032607 90.267633 -4.984297 5.718151 -15.713655 21.894925 -2.692222 0.103315 -0.212814 9.983299 -6.993775 23.898920 -2.923100 7.125000 0.000000 0.000000 13.629000 -6.290000 12.419000 
15.422732 18.029079 20.430968 175.407075 4.864217 -174.088905 -3.087595 2.413967 2.584308 -25.057522 -12.430878 -15.775676 2.612193 7.257206 24.401732 0.267677 -3.794816 -3.019470 0.004300 0.425900 1.170300 -1.133717 -3.042909 2.515240 15.086382 14.271970 -20.646653 -14.373234 -17.311028 71.411827 -0.307465 6.179939 10.886875 -0.035000 1.207000 -3.318600 -2.078157 1.709307 -2.396493 -2.648552 2.092395 6.068187 -1.945463 1.026082 -3.254633 -3.701150 -1.184697 -16.117943 -2.087921 -1.006620 10.748520 -0.325800 -0.954500 6.517500 -3.579576 -1.731489 -0.261258 -89.510702 4.333953 21.219864 17.371487 -18.951992 -2.811444 -0.422924 -1.090237 -2.764280 24.769922 18.218654 8.869400 -7.125000 0.000000 0.000000 -3.078200 51.143300 -0.466200 1.659922 1.177701 -0.019807 90.298679 -4.985451 5.077886 -15.674397 21.856320 -2.662810 0.118767 -0.227152 10.095126 -8.380551 26.315691 -3.833100 7.125000 0.000000 0.000000 12.829800 -3.780800 12.273100 
15.427127 18.024110 20.309154 175.275932 4.730811 -174.080972 -3.081417 2.422966 2.594774 -25.295999 -12.152766 -15.544630 2.640739 7.323332 24.580148 0.297896 -4.106245 -3.153543 0.000100 0.078900 0.216800 -1.088364 -3.102136 2.628125 14.728374 14.480031 -22.187528 -14.625502 -17.375185 72.270894 -0.170780 6.447641 8.684209 -0.079100 1.813700 -4.991100 -2.387925 1.584888 -2.434310 -2.479412 1.936094 6.315703 -1.740459 0.958280 -3.219144 -3.675717 -1.158225 -16.543539 -2.115885 -0.935480 10.800105 -0.328900 -0.920100 6.597000 -3.589165 -1.743044 -0.270667 -89.535785 3.945805 22.163575 17.636966 -19.375017 -2.930530 -0.510209 -1.216314 -3.427940 27.125858 21.434093 11.433700 -7.125000 0.000000 0.000000 -1.373200 55.204500 -0.344100 1.635225 1.204277 -0.020748 90.265341 -4.952521 5.061212 -15.831282 22.088224 -2.699509 0.163598 -0.234340 9.615719 -13.281960 29.383343 -6.746600 7.125000 0.000000 0.000000 10.090900 -0.131500 10.227700 
15.439356 18.018282 20.195843 175.295814 4.101782 -173.894761 -3.058501 2.437187 2.585322 -25.302477 -12.211253 -15.450051 2.693640 7.425566 24.890690 0.335152 -4.575705 -3.217384 0.000200 -0.086700 -0.238100 -1.026657 -3.172901 2.744914 14.580820 14.416050 -23.941460 -14.821596 -17.421007 72.962988 -0.130237 5.855310 6.824310 -0.085000 1.880000 -5.174100 -2.632397 1.319122 -2.519268 -2.147616 1.571635 6.311232 -1.533885 0.788814 -3.164326 -3.484376 -1.149577 -16.165078 -2.534937 -0.970125 10.232694 -0.459600 -0.953500 6.387400 -3.623150 -1.775313 -0.275898 -89.576374 3.640295 22.543070 17.830599 -19.672241 -3.018005 -0.579362 -1.267039 -3.375447 28.974346 22.923218 13.112700 -7.125000 0.000000 0.000000 0.315500 57.290200 0.095000 1.612065 1.216717 -0.024220 90.108253 -5.048517 5.467971 -15.959770 22.253285 -2.736785 0.192524 -0.224642 8.831313 -16.998587 29.953967 -8.840700 7.125000 0.000000 0.000000 7.978900 1.022100 8.199300 
15.447381 18.008824 20.084729 175.216884 3.718421 -173.499384 -3.051997 2.437485 2.538687 -25.356590 -12.352102 -15.510738 2.747957 7.523720 25.195838 0.386166 -5.175804 -3.409209 0.005600 0.484600 1.331700 -0.965490 -3.243963 2.844354 14.133832 14.667365 -25.842796 -14.965773 -17.453137 73.508942 -0.131775 4.833805 5.236531 -0.013900 0.760400 -2.089700 -2.850168 1.158314 -2.599164 -1.952714 1.329037 5.856897 -1.364651 0.681952 -3.208326 -3.527464 -1.081894 -15.493003 -2.653271 -0.922652 9.932035 -0.467500 -0.940200 6.205800 -3.633705 -1.781882 -0.256581 -89.568433 3.696244 23.187175 18.103225 -20.047454 -3.152925 -0.513721 -1.213736 -4.310515 28.380574 20.702633 11.680600 -7.125000 0.000000 0.000000 0.186200 54.670200 0.044200 1.611938 1.221763 -0.007275 89.922879 -5.525793 5.878548 -16.095731 22.421523 -2.788408 0.194369 -0.221253 8.031981 -17.060531 30.027161 -8.892400 7.125000 0.000000 0.000000 7.951700 1.105900 8.182400 
15.446235 18.000416 19.958807 174.916013 3.898391 -173.338777 -3.070105 2.425643 2.503596 -25.727749 -12.234898 -15.372927 2.809197 7.646398 25.563822 0.440457 -5.575866 -3.940448 0.022800 0.974400 2.678500 -0.920489 -3.295548 2.917734 13.396607 15.235539 -27.401590 -15.061248 -17.468173 73.883831 -0.101119 4.441943 3.463801 -0.000300 -0.119100 0.327200 -3.106300 1.191449 -2.533580 -1.994554 1.354873 5.479272 -1.218379 0.711165 -3.353102 -3.629031 -0.978937 -15.227073 -2.672147 -0.786608 10.066068 -0.440400 -0.887400 6.198800 -3.619289 -1.768807 -0.233801 -89.502105 3.795252 23.932551 18.347927 -20.390833 -3.283046 -0.428479 -1.187824 -5.238136 27.134615 19.182351 10.345700 -7.125000 0.000000 0.000000 -0.848000 52.723600 -0.161200 1.619629 1.223955 0.012337 89.856224 -5.984250 5.778876 -16.185557 22.545202 -2.822240 0.188672 -0.227546 7.592053 -16.077246 30.739223 -8.539600 7.125000 0.000000 0.000000 8.595900 1.658700 8.941300 
